# xmcd CD database file
#
# Track frame offsets:
#	150
#	11251
#	27680
#	37734
#	57600
#	80974
#	96107
#	117227
#	131050
#	143727
#	159264
#	172455
#	188786
#	204877
#	222694
#	236994
#	248842
#	259826
#	270982
#	289144
#	298761
#	311879
#	321970
#	334737
#
# Disc length: 4666 seconds
#
# Revision: 0
# Processed by: cddbd v1.5.2PL0 Copyright (c) Steve Scherf et al.
# Submitted via: CDex 1.51
#
DISCID=7a123818
DTITLE=Anita O'Day - Anita O'Day Eight Classic Albums CD3
DYEAR=1960
DGENRE=Jazz
TTITLE0=That Old Feeling (Waiter, Make Mine Blues - 1960)
TTITLE1=Angel Eyes
TTITLE2=The Thrill Is Gone
TTITLE3=Detour Ahead
TTITLE4=Yesterdays
TTITLE5=Waiter, Make Mine Blues
TTITLE6=Whatever Happened To You
TTITLE7=When Sunny Gets Blue
TTITLE8=Stella By Starlight
TTITLE9=Mad About The Boy
TTITLE10=A Blues Serenade
TTITLE11=Goodbye
TTITLE12=Trav'lin Light (Trav'lin Light - 1961)
TTITLE13=The Moon Looks Down And Laughs
TTITLE14=Don't Explain
TTITLE15=Remember
TTITLE16=Some Other Spring
TTITLE17=What A Little Moonlight Can Do
TTITLE18=Miss Brown To You
TTITLE19=God Bless The Child
TTITLE20=If The Moon Turns Green
TTITLE21=I Hear Music
TTITLE22=Lover, Come Back To Me
TTITLE23=Crazy He Calls Me
EXTD=YEAR: 1960
EXTT0=
EXTT1=
EXTT2=
EXTT3=
EXTT4=
EXTT5=
EXTT6=
EXTT7=
EXTT8=
EXTT9=
EXTT10=
EXTT11=
EXTT12=
EXTT13=
EXTT14=
EXTT15=
EXTT16=
EXTT17=
EXTT18=
EXTT19=
EXTT20=
EXTT21=
EXTT22=
EXTT23=
PLAYORDER=
